<svg xmlns="http://www.w3.org/2000/svg" viewBox="0 0 100 100" preserveAspectRatio="xMidYMid" width="201" height="201" style="shape-rendering: auto; display: block; background: rgb(255, 255, 255);" xmlns:xlink="http://www.w3.org/1999/xlink"><g><g transform="rotate(0 50 50)">
  <rect fill="#fe718d" height="21" width="16" ry="10.5" rx="8" y="18.5" x="42">
    <animate repeatCount="indefinite" begin="-1.9946808510638296s" dur="2.127659574468085s" keyTimes="0;1" values="1;0" attributeName="opacity"></animate>
  </rect>
</g><g transform="rotate(22.5 50 50)">
  <rect fill="#f47e60" height="21" width="16" ry="10.5" rx="8" y="18.5" x="42">
    <animate repeatCount="indefinite" begin="-1.8617021276595744s" dur="2.127659574468085s" keyTimes="0;1" values="1;0" attributeName="opacity"></animate>
  </rect>
</g><g transform="rotate(45 50 50)">
  <rect fill="#f8b26a" height="21" width="16" ry="10.5" rx="8" y="18.5" x="42">
    <animate repeatCount="indefinite" begin="-1.728723404255319s" dur="2.127659574468085s" keyTimes="0;1" values="1;0" attributeName="opacity"></animate>
  </rect>
</g><g transform="rotate(67.5 50 50)">
  <rect fill="#abbd81" height="21" width="16" ry="10.5" rx="8" y="18.5" x="42">
    <animate repeatCount="indefinite" begin="-1.5957446808510638s" dur="2.127659574468085s" keyTimes="0;1" values="1;0" attributeName="opacity"></animate>
  </rect>
</g><g transform="rotate(90 50 50)">
  <rect fill="#849b87" height="21" width="16" ry="10.5" rx="8" y="18.5" x="42">
    <animate repeatCount="indefinite" begin="-1.4627659574468084s" dur="2.127659574468085s" keyTimes="0;1" values="1;0" attributeName="opacity"></animate>
  </rect>
</g><g transform="rotate(112.5 50 50)">
  <rect fill="#6492ac" height="21" width="16" ry="10.5" rx="8" y="18.5" x="42">
    <animate repeatCount="indefinite" begin="-1.3297872340425532s" dur="2.127659574468085s" keyTimes="0;1" values="1;0" attributeName="opacity"></animate>
  </rect>
</g><g transform="rotate(135 50 50)">
  <rect fill="#637cb5" height="21" width="16" ry="10.5" rx="8" y="18.5" x="42">
    <animate repeatCount="indefinite" begin="-1.1968085106382977s" dur="2.127659574468085s" keyTimes="0;1" values="1;0" attributeName="opacity"></animate>
  </rect>
</g><g transform="rotate(157.5 50 50)">
  <rect fill="#6a63b6" height="21" width="16" ry="10.5" rx="8" y="18.5" x="42">
    <animate repeatCount="indefinite" begin="-1.0638297872340425s" dur="2.127659574468085s" keyTimes="0;1" values="1;0" attributeName="opacity"></animate>
  </rect>
</g><g transform="rotate(180 50 50)">
  <rect fill="#fe718d" height="21" width="16" ry="10.5" rx="8" y="18.5" x="42">
    <animate repeatCount="indefinite" begin="-0.9308510638297872s" dur="2.127659574468085s" keyTimes="0;1" values="1;0" attributeName="opacity"></animate>
  </rect>
</g><g transform="rotate(202.5 50 50)">
  <rect fill="#f47e60" height="21" width="16" ry="10.5" rx="8" y="18.5" x="42">
    <animate repeatCount="indefinite" begin="-0.7978723404255319s" dur="2.127659574468085s" keyTimes="0;1" values="1;0" attributeName="opacity"></animate>
  </rect>
</g><g transform="rotate(225 50 50)">
  <rect fill="#f8b26a" height="21" width="16" ry="10.5" rx="8" y="18.5" x="42">
    <animate repeatCount="indefinite" begin="-0.6648936170212766s" dur="2.127659574468085s" keyTimes="0;1" values="1;0" attributeName="opacity"></animate>
  </rect>
</g><g transform="rotate(247.5 50 50)">
  <rect fill="#abbd81" height="21" width="16" ry="10.5" rx="8" y="18.5" x="42">
    <animate repeatCount="indefinite" begin="-0.5319148936170213s" dur="2.127659574468085s" keyTimes="0;1" values="1;0" attributeName="opacity"></animate>
  </rect>
</g><g transform="rotate(270 50 50)">
  <rect fill="#849b87" height="21" width="16" ry="10.5" rx="8" y="18.5" x="42">
    <animate repeatCount="indefinite" begin="-0.39893617021276595s" dur="2.127659574468085s" keyTimes="0;1" values="1;0" attributeName="opacity"></animate>
  </rect>
</g><g transform="rotate(292.5 50 50)">
  <rect fill="#6492ac" height="21" width="16" ry="10.5" rx="8" y="18.5" x="42">
    <animate repeatCount="indefinite" begin="-0.26595744680851063s" dur="2.127659574468085s" keyTimes="0;1" values="1;0" attributeName="opacity"></animate>
  </rect>
</g><g transform="rotate(315 50 50)">
  <rect fill="#637cb5" height="21" width="16" ry="10.5" rx="8" y="18.5" x="42">
    <animate repeatCount="indefinite" begin="-0.13297872340425532s" dur="2.127659574468085s" keyTimes="0;1" values="1;0" attributeName="opacity"></animate>
  </rect>
</g><g transform="rotate(337.5 50 50)">
  <rect fill="#6a63b6" height="21" width="16" ry="10.5" rx="8" y="18.5" x="42">
    <animate repeatCount="indefinite" begin="0s" dur="2.127659574468085s" keyTimes="0;1" values="1;0" attributeName="opacity"></animate>
  </rect>
</g><g></g></g><!-- [ldio] generated by https://loading.io --></svg>